<?xml version="1.0" encoding="UTF-8" standalone="no"?>
<!-- Created with Inkscape (http://www.inkscape.org/) -->
<svg xmlns:dc="http://purl.org/dc/elements/1.1/" xmlns:cc="http://creativecommons.org/ns#" xmlns:rdf="http://www.w3.org/1999/02/22-rdf-syntax-ns#" xmlns:svg="http://www.w3.org/2000/svg" xmlns="http://www.w3.org/2000/svg" xmlns:inkscape="http://www.inkscape.org/namespaces/inkscape" xmlns:sodipodi="http://sodipodi.sourceforge.net/DTD/sodipodi-0.dtd" xmlns:ns1="http://sozi.baierouge.fr" version="1.1" width="64" height="56" id="svg2" inkscape:version="0.91 r13725" xmlns:xlink="http://www.w3.org/1999/xlink">
  <defs id="defs4"/>
  <metadata id="metadata7">
    <rdf:RDF>
      <cc:Work rdf:about="">
        <dc:format>image/svg+xml</dc:format>
        <dc:type rdf:resource="http://purl.org/dc/dcmitype/StillImage"/>
        <dc:title/>
      </cc:Work>
    </rdf:RDF>
  </metadata>
  <g transform="translate(-164.97975,-463.72751)" id="layer1">
    <g transform="translate(138.3909,31.314729)" id="g3007">
      <path d="m 58.588848,488.41278 -16,0 0,-4 0,-4 -4,0 -4,0 0,-4 0,-4 -4,0 -4,0 0,-12 0,-12 4,0 4,0 0,-4 0,-4 4,0 4,0 0,-4 0,-4 16,0 16,0 0,4 0,4 4,0 4,0 0,4 0,4 4,0 4,0 0,12 0,12 -4,0 -4,0 0,4 0,4 -4,0 -4,0 0,4 0,4 -16,0 z" id="path3023" style="fill:#f15d42"/>
      <path d="m 58.588848,488.41278 -16,0 0,-4 0,-4 -4,0 -4,0 0,-4 0,-4 -4,0 -4,0 0,-12 0,-12 4,0 4,0 0,-4 0,-4 4,0 4,0 0,-4 0,-4 16,0 16,0 0,4 0,4 4,0 4,0 0,4 0,4 4,0 4,0 0,12 0,12 -4,0 -4,0 0,4 0,4 -4,0 -4,0 0,4 0,4 -16,0 z m -20,-32 4,0 0,-4 0,-4 -4,0 -4,0 0,4 0,4 4,0 z" id="path3021" style="fill:#d33f24"/>
      <path d="m 58.588848,488.41278 -16,0 0,-4 0,-4 -4,0 -4,0 0,-4 0,-4 -4,0 -4,0 0,-12 0,-12 4,0 4,0 0,-4 0,-4 4,0 4,0 0,-4 0,-4 16,0 16,0 0,4 0,4 4,0 4,0 0,4 0,4 4,0 4,0 0,12 0,12 -4,0 -4,0 0,4 0,4 -4,0 -4,0 0,4 0,4 -16,0 z m -20,-24 4,0 0,-4 0,-4 4,0 4,0 0,-4 0,-4 -8,0 -8,0 0,8 0,8 4,0 z" id="path3019" style="fill:#b52106"/>
      <path d="m 58.588848,488.41278 -16,0 0,-4 0,-4 -4,0 -4,0 0,-4 0,-4 -4,0 -4,0 0,-12 0,-12 4,0 4,0 0,-4 0,-4 4,0 4,0 0,-4 0,-4 16,0 16,0 0,4 0,4 4,0 4,0 0,4 0,4 4,0 4,0 0,12 0,12 -4,0 -4,0 0,4 0,4 -4,0 -4,0 0,4 0,4 -16,0 z m -12,-8 4,0 0,-4 0,-4 4,0 4,0 0,-4 0,-4 8,0 8,0 0,-4 0,-4 4,0 4,0 0,-4 0,-4 -4,0 -4,0 0,4 0,4 -4,0 -4,0 0,-4 0,-4 -4,0 -4,0 0,-4 0,-4 -4,0 -4,0 0,4 0,4 -8,0 -8,0 0,12 0,12 4,0 4,0 0,4 0,4 4,0 z m 8,-24 -4,0 0,-4 0,-4 4,0 4,0 0,4 0,4 -4,0 z" id="path3017" style="fill:#00a100"/>
      <path d="m 58.588848,488.41278 -16,0 0,-4 0,-4 -4,0 -4,0 0,-4 0,-4 -4,0 -4,0 0,-12 0,-12 4,0 4,0 0,-4 0,-4 4,0 4,0 0,-4 0,-4 4,0 4,0 0,8 0,8 -8,0 -8,0 0,12 0,12 4,0 4,0 0,4 0,4 4,0 4,0 0,-4 0,-4 4,0 4,0 0,-4 0,-4 8,0 8,0 0,-4 0,-4 4,0 4,0 0,-4 0,-4 -12,0 -12,0 0,-8 0,-8 4,0 4,0 0,4 0,4 8,0 8,0 0,4 0,4 4,0 4,0 0,12 0,12 -4,0 -4,0 0,4 0,4 -4,0 -4,0 0,4 0,4 -16,0 z" id="path3015" style="fill:#970300"/>
      <path d="m 58.588848,488.41278 -16,0 0,-4 0,-4 -4,0 -4,0 0,-4 0,-4 -4,0 -4,0 0,-12 0,-12 4,0 4,0 0,-4 0,-4 4,0 4,0 0,-4 0,-4 4,0 4,0 0,8 0,8 -8,0 -8,0 0,12 0,12 4,0 4,0 0,4 0,4 12,0 12,0 0,-4 0,-4 4,0 4,0 0,-4 0,-4 4,0 4,0 0,-8 0,-8 -12,0 -12,0 0,-8 0,-8 4,0 4,0 0,4 0,4 8,0 8,0 0,4 0,4 4,0 4,0 0,12 0,12 -4,0 -4,0 0,4 0,4 -4,0 -4,0 0,4 0,4 -16,0 z" id="path3013" style="fill:#790000"/>
      <path d="m 58.588848,488.41278 -16,0 0,-4 0,-4 -4,0 -4,0 0,-4 0,-4 -4,0 -4,0 0,-12 0,-12 4,0 4,0 0,-4 0,-4 4,0 4,0 0,-4 0,-4 4,0 4,0 0,8 0,8 -8,0 -8,0 0,12 0,12 4,0 4,0 0,4 0,4 16,0 16,0 0,-4 0,-4 4,0 4,0 0,-12 0,-12 -12,0 -12,0 0,-8 0,-8 4,0 4,0 0,4 0,4 8,0 8,0 0,4 0,4 4,0 4,0 0,12 0,12 -4,0 -4,0 0,4 0,4 -4,0 -4,0 0,4 0,4 -16,0 z" id="path3011" style="fill:#006500"/>
      <path d="m 58.588848,488.41278 -16,0 0,-4 0,-4 -4,0 -4,0 0,-4 0,-4 -4,0 -4,0 0,-12 0,-12 4,0 4,0 0,-4 0,-4 4,0 4,0 0,-4 0,-4 4,0 4,0 0,8 0,8 -8,0 -8,0 0,12 0,12 4,0 4,0 0,4 0,4 16,0 16,0 0,-4 0,-4 4,0 4,0 0,-12 0,-12 -8,0 -8,0 0,-4 0,-4 -4,0 -4,0 0,-4 0,-4 4,0 4,0 0,4 0,4 8,0 8,0 0,4 0,4 4,0 4,0 0,12 0,12 -4,0 -4,0 0,4 0,4 -4,0 -4,0 0,4 0,4 -16,0 z" id="path3009" style="fill:#000000"/>
    </g>
  </g>
</svg>
